<svg width="45" height="45" viewBox="0 0 45 45" fill="none" xmlns="http://www.w3.org/2000/svg">
<g clip-path="url(#clip0_200_21)">
<circle cx="22.5" cy="22.5" r="22.5" fill="#EDF7FF"/>
<path d="M37.3433 30.9389L36.8206 29.2263C36.6521 28.9151 36.4876 28.678 36.3471 28.4789C36.3306 28.4555 36.3134 28.4313 36.2958 28.4065C36.2025 28.2751 36.096 28.1249 36.0087 27.9834C35.9002 27.8074 35.7794 27.5804 35.7133 27.3066C35.5623 26.6812 35.7633 26.1263 36.0785 25.6205C37.1782 23.8564 37.6663 21.161 37.6663 18.7415C37.6663 15.3974 36.5389 13.4529 34.5888 12.2151C32.5288 10.9076 29.4217 10.3011 25.2733 10.0522C21.2046 9.80814 18.1354 10.4226 16.1091 11.8192C14.145 13.173 13 15.3756 13 18.7415C13 25.4117 18.5055 30.848 25.3331 30.848C27.2595 30.848 29.0797 30.4152 30.7008 29.6446C31.0905 29.4593 31.463 29.5229 31.6689 29.5772C31.88 29.6328 32.0896 29.7269 32.2531 29.8033C32.3354 29.8418 32.418 29.8814 32.5027 29.9221C32.794 30.0619 33.1098 30.2135 33.5195 30.3668C34.3565 30.6798 35.573 30.989 37.3433 30.9389Z" stroke="#0127A5" stroke-width="2"/>
<path d="M8.32297 35.9389L8.84565 34.2263C9.01412 33.9151 9.17867 33.678 9.31918 33.4789C9.33566 33.4555 9.35283 33.4313 9.37047 33.4065C9.46373 33.2751 9.57026 33.1249 9.65752 32.9834C9.76608 32.8074 9.88684 32.5804 9.95294 32.3066C10.1039 31.6812 9.90299 31.1263 9.58772 30.6205C8.48806 28.8564 8 26.161 8 23.7415C8 20.3974 9.12731 18.4529 11.0775 17.2151C13.1374 15.9076 16.2446 15.3011 20.393 15.0522C24.4617 14.8081 27.5309 15.4226 29.5571 16.8192C31.5213 18.173 32.6663 20.3756 32.6663 23.7415C32.6663 30.4117 27.1608 35.848 20.3331 35.848C18.4068 35.848 16.5866 35.4152 14.9654 34.6446C14.5758 34.4593 14.2032 34.5229 13.9974 34.5772C13.7863 34.6328 13.5767 34.7269 13.4131 34.8033C13.3309 34.8418 13.2482 34.8814 13.1635 34.9221C12.8723 35.0619 12.5564 35.2135 12.1467 35.3668C11.3097 35.6798 10.0932 35.989 8.32297 35.9389Z" fill="white" stroke="#0127A5" stroke-width="2"/>
<path d="M14.1103 27.9999V27.0519C14.7823 26.4199 15.3703 25.8479 15.8743 25.3359C16.3783 24.8159 16.7703 24.3439 17.0503 23.9199C17.3303 23.4959 17.4703 23.0959 17.4703 22.7199C17.4703 22.3359 17.3703 22.0399 17.1703 21.8319C16.9703 21.6239 16.6903 21.5199 16.3303 21.5199C16.0583 21.5199 15.8063 21.5999 15.5743 21.7599C15.3423 21.9199 15.1303 22.1079 14.9383 22.3239L14.0383 21.4359C14.4063 21.0359 14.7823 20.7359 15.1663 20.5359C15.5583 20.3359 16.0223 20.2359 16.5583 20.2359C17.0543 20.2359 17.4863 20.3359 17.8543 20.5359C18.2303 20.7279 18.5223 21.0039 18.7303 21.3639C18.9383 21.7239 19.0423 22.1479 19.0423 22.6359C19.0423 23.0679 18.9223 23.5079 18.6823 23.9559C18.4423 24.4039 18.1263 24.8599 17.7343 25.3239C17.3503 25.7799 16.9343 26.2399 16.4863 26.7039C16.6863 26.6799 16.9023 26.6599 17.1343 26.6439C17.3743 26.6279 17.5863 26.6199 17.7703 26.6199H19.4143V27.9999H14.1103Z" fill="#00D2FB"/>
<path d="M23.4875 27.9999V23.4759C23.4875 23.2439 23.4955 22.9679 23.5115 22.6479C23.5355 22.3199 23.5515 22.0399 23.5595 21.8079H23.5115C23.4155 22.0159 23.3155 22.2239 23.2115 22.4319C23.1075 22.6399 22.9995 22.8519 22.8875 23.0679L21.7595 24.8799H25.9355V26.1399H20.1755V24.9999L23.0315 20.3799H25.0235V27.9999H23.4875Z" fill="#0127A5"/>
</g>
<defs>
<clipPath id="clip0_200_21">
<rect width="45" height="45" fill="white"/>
</clipPath>
</defs>
</svg>
