<svg width="220" height="220" viewBox="0 0 220 220" fill="none" xmlns="http://www.w3.org/2000/svg">
<circle cx="98.8889" cy="114.076" r="88.8889" fill="#EDF7FF"/>
<path d="M64.9708 66.2398C64.9708 55.1941 73.9251 46.2398 84.9708 46.2398H185.322C196.367 46.2398 205.322 55.1941 205.322 66.2398V118.754H64.9708V66.2398Z" fill="#0127A5"/>
<path d="M64.9708 66.2398C64.9708 55.1941 73.9251 46.2398 84.9708 46.2398H101.111C112.157 46.2398 121.111 55.1941 121.111 66.2398V118.754H64.9708V66.2398Z" fill="#021863"/>
<path d="M79.5673 72.6868C81.1013 66.9617 87.2501 63.8197 92.7884 65.9309L120.422 76.4644L116.314 109.097L72.9262 97.4717L79.5673 72.6868Z" fill="#019CBA"/>
<path d="M71.9883 86.6491C71.9883 81.1263 76.4654 76.6491 81.9883 76.6491H121.111V118.754H71.9883V86.6491Z" fill="#00D2FB"/>
<path d="M87.193 89.5146L101.719 101.351C102.455 101.95 103.51 101.95 104.246 101.351L118.772 89.5146" stroke="#019CBA" stroke-width="2" stroke-linecap="round"/>
<rect x="60.2924" y="118.754" width="149.708" height="7.01754" rx="3.50877" fill="#4C69C9"/>
<path d="M102.398 125.772H169.064C169.064 130.939 164.875 135.129 159.708 135.129H111.754C106.587 135.129 102.398 130.939 102.398 125.772Z" fill="#2E448B"/>
<path d="M125.205 135.129H143.918L143.895 190.877L139.711 193.202L135.061 195.526L129.947 197.386L124.833 199.246L125.205 135.129Z" fill="#0F1D4E"/>
<circle cx="138.832" cy="64.3592" r="6.31241" transform="rotate(60 138.832 64.3592)" fill="#0F1D4E"/>
<path d="M159.943 23.8713L162.981 25.6257L140.094 65.2679L137.055 63.5135L159.943 23.8713Z" fill="#0F1D4E"/>
<path d="M162.981 25.6257L183.746 37.614L174.974 52.8075L154.209 40.8192L162.981 25.6257Z" fill="#00EC8A"/>
</svg>
