<svg width="207" height="50" viewBox="0 0 207 50" fill="none" xmlns="http://www.w3.org/2000/svg">
<g clip-path="url(#clip0_12_41)">
<path d="M16.2105 42V10.5H23.5455L40.9155 31.47H37.4505V10.5H46.1805V42H38.8455L21.4755 21.03H24.9405V42H16.2105ZM52.4654 42V10.5H59.8004L72.8504 31.92H68.9804L81.6704 10.5H89.0054L89.0954 42H80.9054L80.8154 22.965H82.2104L72.7154 38.895H68.7554L58.9904 22.965H60.7004V42H52.4654ZM91.62 42L105.525 10.5H114.3L128.25 42H118.98L108.09 14.865H111.6L100.71 42H91.62ZM99.225 35.88L101.52 29.31H116.91L119.205 35.88H99.225ZM130.776 42V10.5H145.671C149.151 10.5 152.211 11.145 154.851 12.435C157.491 13.725 159.546 15.54 161.016 17.88C162.516 20.22 163.266 23.01 163.266 26.25C163.266 29.46 162.516 32.25 161.016 34.62C159.546 36.96 157.491 38.775 154.851 40.065C152.211 41.355 149.151 42 145.671 42H130.776ZM139.686 34.89H145.311C147.111 34.89 148.671 34.56 149.991 33.9C151.341 33.21 152.391 32.22 153.141 30.93C153.891 29.61 154.266 28.05 154.266 26.25C154.266 24.42 153.891 22.86 153.141 21.57C152.391 20.28 151.341 19.305 149.991 18.645C148.671 17.955 147.111 17.61 145.311 17.61H139.686V34.89ZM179.024 42.63C176.444 42.63 173.954 42.315 171.554 41.685C169.184 41.025 167.249 40.185 165.749 39.165L168.674 32.595C170.084 33.495 171.704 34.245 173.534 34.845C175.394 35.415 177.239 35.7 179.069 35.7C180.299 35.7 181.289 35.595 182.039 35.385C182.789 35.145 183.329 34.845 183.659 34.485C184.019 34.095 184.199 33.645 184.199 33.135C184.199 32.415 183.869 31.845 183.209 31.425C182.549 31.005 181.694 30.66 180.644 30.39C179.594 30.12 178.424 29.85 177.134 29.58C175.874 29.31 174.599 28.965 173.309 28.545C172.049 28.125 170.894 27.585 169.844 26.925C168.794 26.235 167.939 25.35 167.279 24.27C166.619 23.16 166.289 21.765 166.289 20.085C166.289 18.195 166.799 16.485 167.819 14.955C168.869 13.425 170.429 12.195 172.499 11.265C174.569 10.335 177.149 9.87 180.239 9.87C182.309 9.87 184.334 10.11 186.314 10.59C188.324 11.04 190.109 11.715 191.669 12.615L188.924 19.23C187.424 18.42 185.939 17.82 184.469 17.43C182.999 17.01 181.574 16.8 180.194 16.8C178.964 16.8 177.974 16.935 177.224 17.205C176.474 17.445 175.934 17.775 175.604 18.195C175.274 18.615 175.109 19.095 175.109 19.635C175.109 20.325 175.424 20.88 176.054 21.3C176.714 21.69 177.569 22.02 178.619 22.29C179.699 22.53 180.869 22.785 182.129 23.055C183.419 23.325 184.694 23.67 185.954 24.09C187.244 24.48 188.414 25.02 189.464 25.71C190.514 26.37 191.354 27.255 191.984 28.365C192.644 29.445 192.974 30.81 192.974 32.46C192.974 34.29 192.449 35.985 191.399 37.545C190.379 39.075 188.834 40.305 186.764 41.235C184.724 42.165 182.144 42.63 179.024 42.63Z" fill="#071C4D"/>
<path d="M57 20.5C57 23.9715 49 42 49 42C49 42 41 24 41 20.5C41 17.0285 44.5817 14 49 14C53.4183 14 57 17.0285 57 20.5Z" fill="white"/>
<circle cx="49" cy="22" r="4" fill="#071C4D"/>
</g>
<defs>
<clipPath id="clip0_12_41">
<rect width="207" height="50" fill="white"/>
</clipPath>
</defs>
</svg>
