<svg width="23" height="23" viewBox="0 0 23 23" fill="none" xmlns="http://www.w3.org/2000/svg">
<g clip-path="url(#clip0_63_96)">
<path d="M18.2084 3.83333H4.79175C3.20393 3.83333 1.91675 5.12051 1.91675 6.70833V18.2083C1.91675 19.7961 3.20393 21.0833 4.79175 21.0833H18.2084C19.7962 21.0833 21.0834 19.7961 21.0834 18.2083V6.70833C21.0834 5.12051 19.7962 3.83333 18.2084 3.83333Z" stroke="#071C4D" stroke-width="2"/>
<path d="M8.625 2.39583C8.625 1.60192 7.98141 0.958328 7.1875 0.958328C6.39359 0.958328 5.75 1.60192 5.75 2.39583V5.27083C5.75 6.06474 6.39359 6.70833 7.1875 6.70833C7.98141 6.70833 8.625 6.06474 8.625 5.27083V2.39583Z" fill="#071C4D"/>
<path d="M17.25 2.39583C17.25 1.60192 16.6064 0.958328 15.8125 0.958328C15.0186 0.958328 14.375 1.60192 14.375 2.39583V5.27083C14.375 6.06474 15.0186 6.70833 15.8125 6.70833C16.6064 6.70833 17.25 6.06474 17.25 5.27083V2.39583Z" fill="#071C4D"/>
<path d="M17.4897 8.625H14.3751C13.8458 8.625 13.4167 9.05406 13.4167 9.58333V11.6917C13.4167 12.2209 13.8458 12.65 14.3751 12.65H17.4897C18.0189 12.65 18.448 12.2209 18.448 11.6917V9.58333C18.448 9.05406 18.0189 8.625 17.4897 8.625Z" fill="#071C4D"/>
<path d="M8.86466 8.625H5.75008C5.22081 8.625 4.79175 9.05406 4.79175 9.58333V11.6917C4.79175 12.2209 5.22081 12.65 5.75008 12.65H8.86466C9.39394 12.65 9.823 12.2209 9.823 11.6917V9.58333C9.823 9.05406 9.39394 8.625 8.86466 8.625Z" fill="#071C4D"/>
<path d="M17.4897 14.375H14.3751C13.8458 14.375 13.4167 14.8041 13.4167 15.3333V17.4417C13.4167 17.9709 13.8458 18.4 14.3751 18.4H17.4897C18.0189 18.4 18.448 17.9709 18.448 17.4417V15.3333C18.448 14.8041 18.0189 14.375 17.4897 14.375Z" fill="#071C4D"/>
<path d="M8.86466 14.375H5.75008C5.22081 14.375 4.79175 14.8041 4.79175 15.3333V17.4417C4.79175 17.9709 5.22081 18.4 5.75008 18.4H8.86466C9.39394 18.4 9.823 17.9709 9.823 17.4417V15.3333C9.823 14.8041 9.39394 14.375 8.86466 14.375Z" fill="#071C4D"/>
</g>
<defs>
<clipPath id="clip0_63_96">
<rect width="23" height="23" fill="white"/>
</clipPath>
</defs>
</svg>
