<svg width="45" height="45" viewBox="0 0 45 45" fill="none" xmlns="http://www.w3.org/2000/svg">
<g clip-path="url(#clip0_68_619)">
<circle cx="22.5" cy="22.5" r="22.5" fill="#EDF7FF"/>
<rect x="7.15657" y="17.7305" width="27" height="17" rx="2" transform="rotate(-15 7.15657 17.7305)" stroke="#0127A5" stroke-width="2"/>
<mask id="path-3-outside-1_68_619" maskUnits="userSpaceOnUse" x="29.7611" y="11.9322" width="8.4531" height="14.8171" fill="black">
<rect fill="white" x="29.7611" y="11.9322" width="8.4531" height="14.8171"/>
<path fill-rule="evenodd" clip-rule="evenodd" d="M34.9883 21.1436L33.9529 17.2795C33.4844 17.8772 33.293 18.6803 33.5047 19.4704C33.7164 20.2604 34.2837 20.8602 34.9883 21.1436Z"/>
</mask>
<path fill-rule="evenodd" clip-rule="evenodd" d="M34.9883 21.1436L33.9529 17.2795C33.4844 17.8772 33.293 18.6803 33.5047 19.4704C33.7164 20.2604 34.2837 20.8602 34.9883 21.1436Z" fill="#D9D9D9"/>
<path d="M34.9883 21.1436L34.242 22.9991L37.9564 24.4931L36.9201 20.6259L34.9883 21.1436ZM33.9529 17.2795L35.8848 16.7619L34.8486 12.8947L32.3788 16.0457L33.9529 17.2795ZM36.9201 20.6259L35.8848 16.7619L32.0211 17.7971L33.0564 21.6612L36.9201 20.6259ZM35.4365 18.9527C35.3945 18.796 35.4299 18.6373 35.527 18.5133L32.3788 16.0457C31.539 17.1172 31.1915 18.5647 31.5728 19.988L35.4365 18.9527ZM35.7346 19.288C35.5885 19.2293 35.4785 19.1095 35.4365 18.9527L31.5728 19.988C31.9542 21.4113 32.9789 22.4911 34.242 22.9991L35.7346 19.288Z" fill="#0127A5" mask="url(#path-3-outside-1_68_619)"/>
<circle cx="35.9195" cy="18.8233" r="2.5" transform="rotate(-15 35.9195 18.8233)" fill="#EDF7FF"/>
<mask id="path-6-outside-2_68_619" maskUnits="userSpaceOnUse" x="6.5788" y="18.1439" width="8.4531" height="14.8171" fill="black">
<rect fill="white" x="6.5788" y="18.1439" width="8.4531" height="14.8171"/>
<path fill-rule="evenodd" clip-rule="evenodd" d="M10.8401 27.6141C11.3086 27.0163 11.5001 26.2132 11.2884 25.4232C11.0767 24.6332 10.5093 24.0334 9.80475 23.75L10.8401 27.6141Z"/>
</mask>
<path fill-rule="evenodd" clip-rule="evenodd" d="M10.8401 27.6141C11.3086 27.0163 11.5001 26.2132 11.2884 25.4232C11.0767 24.6332 10.5093 24.0334 9.80475 23.75L10.8401 27.6141Z" fill="#D9D9D9"/>
<path d="M10.8401 27.6141L8.90827 28.1317L9.94448 31.9989L12.4142 28.8478L10.8401 27.6141ZM9.80475 23.75L10.5511 21.8945L6.83669 20.4004L7.8729 24.2676L9.80475 23.75ZM9.35651 25.9408C9.39851 26.0976 9.36318 26.2563 9.26601 26.3803L12.4142 28.8478C13.254 27.7764 13.6016 26.3289 13.2202 24.9056L9.35651 25.9408ZM9.05841 25.6055C9.20456 25.6643 9.3145 25.7841 9.35651 25.9408L13.2202 24.9056C12.8388 23.4823 11.8141 22.4025 10.5511 21.8945L9.05841 25.6055ZM7.8729 24.2676L8.90827 28.1317L12.772 27.0964L11.7366 23.2324L7.8729 24.2676Z" fill="#0127A5" mask="url(#path-6-outside-2_68_619)"/>
<circle cx="8.87357" cy="26.0703" r="2.5" transform="rotate(-15 8.87357 26.0703)" fill="#EDF7FF"/>
<circle cx="18.899" cy="22.899" r="4" transform="rotate(-15 18.899 22.899)" fill="#00D2FB"/>
<path d="M25.6386 13.2959L29.7797 28.7507" stroke="#0127A5" stroke-width="2" stroke-dasharray="2 2"/>
</g>
<defs>
<clipPath id="clip0_68_619">
<rect width="45" height="45" fill="white"/>
</clipPath>
</defs>
</svg>
