<svg width="45" height="45" viewBox="0 0 45 45" fill="none" xmlns="http://www.w3.org/2000/svg">
<g clip-path="url(#clip0_67_401)">
<circle cx="22.5" cy="22.5" r="22.5" fill="#EDF7FF"/>
<path d="M32.8383 17.1267C32.8383 18.2661 32.6641 18.9442 32.3562 19.3946C32.0638 19.8223 31.5435 20.1984 30.4848 20.4824C30.078 20.5915 29.3329 20.6883 28.3734 20.7646C27.4369 20.839 26.3659 20.8892 25.3483 20.9228C24.3323 20.9564 23.3777 20.9732 22.6767 20.9816C22.3264 20.9858 22.0399 20.9879 21.8413 20.989C21.742 20.9895 21.6647 20.9897 21.6124 20.9899L21.5531 20.99L21.5383 20.99L21.5347 20.99H21.5338H21.5336H21.5335H21.5329L21.5299 20.99L21.5173 20.99L21.4669 20.9899C21.4223 20.9897 21.3563 20.9895 21.2713 20.989C21.1013 20.9879 20.8556 20.9858 20.5545 20.9816C19.9517 20.9732 19.1287 20.9565 18.246 20.923C16.4271 20.854 14.5219 20.718 13.6724 20.4841C12.6296 20.197 11.9976 19.8063 11.6142 19.331C11.2379 18.8646 11 18.1911 11 17.1267C11 15.1468 12.2194 13.3892 14.2712 12.0774C16.3194 10.7679 19.0694 10 21.7629 10C24.4266 10 27.258 10.8876 29.4062 12.2776C31.5912 13.6914 32.8383 15.4588 32.8383 17.1267Z" stroke="#0127A5" stroke-width="2"/>
<rect x="12" y="23" width="20" height="5" rx="2.5" fill="#00D2FB"/>
<path d="M11.3446 31.2205C11.1706 30.9424 11.1908 30.6613 11.3314 30.4297C11.4779 30.1882 11.7608 30 12.1336 30H32.6391C32.9549 30 33.2036 30.1418 33.3412 30.3178C33.4683 30.4806 33.5102 30.6764 33.4221 30.9002C33.131 31.6395 32.7522 32.3336 32.2929 32.7929C31.5893 33.4965 31.1315 33.8042 30.8935 33.933C30.8298 33.9674 30.7836 33.9881 30.7541 34H13.8732C13.8529 33.9896 13.8269 33.9752 13.7948 33.9559C13.5889 33.8319 13.175 33.5266 12.5185 32.8195C12.1361 32.4078 11.7301 31.8366 11.3446 31.2205Z" stroke="#0127A5" stroke-width="2"/>
</g>
<defs>
<clipPath id="clip0_67_401">
<rect width="45" height="45" fill="white"/>
</clipPath>
</defs>
</svg>
