<svg width="45" height="45" viewBox="0 0 45 45" fill="none" xmlns="http://www.w3.org/2000/svg">
<g clip-path="url(#clip0_66_378)">
<circle cx="22.5" cy="22.5" r="22.5" fill="#EDF7FF"/>
<path d="M34.6663 19.7415C34.6663 26.4117 29.1608 31.848 22.3331 31.848C20.4068 31.848 18.5866 31.4152 16.9654 30.6446C16.5758 30.4593 16.2032 30.5229 15.9974 30.5772C15.7863 30.6328 15.5767 30.7269 15.4131 30.8033C15.3309 30.8418 15.2482 30.8814 15.1635 30.9221C14.8723 31.0619 14.5564 31.2135 14.1467 31.3668C13.2909 31.6869 12.0383 32.0029 10.2026 31.935C10.5362 30.6098 10.9926 29.9415 11.3192 29.4789C11.3357 29.4555 11.3528 29.4313 11.3705 29.4065C11.4637 29.275 11.5703 29.1249 11.6575 28.9834C11.7661 28.8074 11.8868 28.5804 11.9529 28.3066C12.1039 27.6812 11.903 27.1263 11.5877 26.6205C10.4881 24.8564 10 22.161 10 19.7415C10 16.3974 11.1273 14.4529 13.0775 13.2151C15.1374 11.9076 18.2446 11.3011 22.393 11.0522C26.4617 10.8081 29.5309 11.4226 31.5571 12.8192C33.5213 14.173 34.6663 16.3756 34.6663 19.7415Z" stroke="#0127A5" stroke-width="2"/>
<path d="M15.6063 23.9999L18.0903 16.1759H20.0583L22.5423 23.9999H20.8023L19.7223 19.9679C19.6103 19.5679 19.4983 19.1479 19.3863 18.7079C19.2823 18.2679 19.1743 17.8399 19.0623 17.4239H19.0143C18.9183 17.8399 18.8143 18.2679 18.7023 18.7079C18.5983 19.1479 18.4903 19.5679 18.3783 19.9679L17.2863 23.9999H15.6063ZM17.1903 22.0559V20.7719H20.9343V22.0559H17.1903Z" fill="#00D2FB"/>
<path d="M24.7666 24.1439C24.4146 24.1439 24.1066 24.0679 23.8426 23.9159C23.5786 23.7559 23.3706 23.5439 23.2186 23.2799C23.0746 23.0079 23.0026 22.7039 23.0026 22.3679C23.0026 21.7439 23.2706 21.2559 23.8066 20.9039C24.3426 20.5519 25.2066 20.3119 26.3986 20.1839C26.3906 19.9999 26.3506 19.8359 26.2786 19.6919C26.2146 19.5479 26.1106 19.4359 25.9666 19.3559C25.8306 19.2759 25.6466 19.2359 25.4146 19.2359C25.1506 19.2359 24.8866 19.2879 24.6226 19.3919C24.3666 19.4879 24.0986 19.6199 23.8186 19.7879L23.2186 18.6959C23.4586 18.5519 23.7146 18.4199 23.9866 18.2999C24.2586 18.1799 24.5386 18.0879 24.8266 18.0239C25.1146 17.9519 25.4146 17.9159 25.7266 17.9159C26.2306 17.9159 26.6546 18.0159 26.9986 18.2159C27.3426 18.4159 27.6026 18.7119 27.7786 19.1039C27.9546 19.4879 28.0426 19.9759 28.0426 20.5679V23.9999H26.6986L26.5786 23.3759H26.5306C26.2826 23.5999 26.0106 23.7839 25.7146 23.9279C25.4266 24.0719 25.1106 24.1439 24.7666 24.1439ZM25.3186 22.8719C25.5346 22.8719 25.7226 22.8239 25.8826 22.7279C26.0506 22.6239 26.2226 22.4879 26.3986 22.3199V21.1919C25.9426 21.2479 25.5826 21.3279 25.3186 21.4319C25.0546 21.5279 24.8666 21.6479 24.7546 21.7919C24.6426 21.9279 24.5866 22.0759 24.5866 22.2359C24.5866 22.4519 24.6546 22.6119 24.7906 22.7159C24.9266 22.8199 25.1026 22.8719 25.3186 22.8719Z" fill="#0127A5"/>
</g>
<defs>
<clipPath id="clip0_66_378">
<rect width="45" height="45" fill="white"/>
</clipPath>
</defs>
</svg>
