<svg width="181" height="50" viewBox="0 0 181 50" fill="none" xmlns="http://www.w3.org/2000/svg">
<path d="M3.21057 42V10.5H10.5455L27.9155 31.47H24.4505V10.5H33.1805V42H25.8455L8.47557 21.03H11.9405V42H3.21057ZM39.4654 42V10.5H46.8004L59.8504 31.92H55.9804L68.6704 10.5H76.0054L76.0954 42H67.9054L67.8154 22.965H69.2104L59.7154 38.895H55.7554L45.9904 22.965H47.7004V42H39.4654ZM78.62 42L92.525 10.5H101.3L115.25 42H105.98L95.09 14.865H98.6L87.71 42H78.62ZM86.225 35.88L88.52 29.31H103.91L106.205 35.88H86.225ZM117.776 42V10.5H132.671C136.151 10.5 139.211 11.145 141.851 12.435C144.491 13.725 146.546 15.54 148.016 17.88C149.516 20.22 150.266 23.01 150.266 26.25C150.266 29.46 149.516 32.25 148.016 34.62C146.546 36.96 144.491 38.775 141.851 40.065C139.211 41.355 136.151 42 132.671 42H117.776ZM126.686 34.89H132.311C134.111 34.89 135.671 34.56 136.991 33.9C138.341 33.21 139.391 32.22 140.141 30.93C140.891 29.61 141.266 28.05 141.266 26.25C141.266 24.42 140.891 22.86 140.141 21.57C139.391 20.28 138.341 19.305 136.991 18.645C135.671 17.955 134.111 17.61 132.311 17.61H126.686V34.89ZM166.024 42.63C163.444 42.63 160.954 42.315 158.554 41.685C156.184 41.025 154.249 40.185 152.749 39.165L155.674 32.595C157.084 33.495 158.704 34.245 160.534 34.845C162.394 35.415 164.239 35.7 166.069 35.7C167.299 35.7 168.289 35.595 169.039 35.385C169.789 35.145 170.329 34.845 170.659 34.485C171.019 34.095 171.199 33.645 171.199 33.135C171.199 32.415 170.869 31.845 170.209 31.425C169.549 31.005 168.694 30.66 167.644 30.39C166.594 30.12 165.424 29.85 164.134 29.58C162.874 29.31 161.599 28.965 160.309 28.545C159.049 28.125 157.894 27.585 156.844 26.925C155.794 26.235 154.939 25.35 154.279 24.27C153.619 23.16 153.289 21.765 153.289 20.085C153.289 18.195 153.799 16.485 154.819 14.955C155.869 13.425 157.429 12.195 159.499 11.265C161.569 10.335 164.149 9.87 167.239 9.87C169.309 9.87 171.334 10.11 173.314 10.59C175.324 11.04 177.109 11.715 178.669 12.615L175.924 19.23C174.424 18.42 172.939 17.82 171.469 17.43C169.999 17.01 168.574 16.8 167.194 16.8C165.964 16.8 164.974 16.935 164.224 17.205C163.474 17.445 162.934 17.775 162.604 18.195C162.274 18.615 162.109 19.095 162.109 19.635C162.109 20.325 162.424 20.88 163.054 21.3C163.714 21.69 164.569 22.02 165.619 22.29C166.699 22.53 167.869 22.785 169.129 23.055C170.419 23.325 171.694 23.67 172.954 24.09C174.244 24.48 175.414 25.02 176.464 25.71C177.514 26.37 178.354 27.255 178.984 28.365C179.644 29.445 179.974 30.81 179.974 32.46C179.974 34.29 179.449 35.985 178.399 37.545C177.379 39.075 175.834 40.305 173.764 41.235C171.724 42.165 169.144 42.63 166.024 42.63Z" fill="#071C4D"/>
<path d="M44 20.5C44 23.9715 36 42 36 42C36 42 28 24 28 20.5C28 17.0285 31.5817 14 36 14C40.4183 14 44 17.0285 44 20.5Z" fill="white"/>
<path d="M36 26C38.2091 26 40 24.2091 40 22C40 19.7909 38.2091 18 36 18C33.7909 18 32 19.7909 32 22C32 24.2091 33.7909 26 36 26Z" fill="#071C4D"/>
</svg>
